<?xml version="1.0" encoding="utf-8"?>
<!-- Generator: Adobe Illustrator 14.0.0, SVG Export Plug-In . SVG Version: 6.00 Build 43363)  -->
<!DOCTYPE svg PUBLIC "-//W3C//DTD SVG 1.1//EN" "http://www.w3.org/Graphics/SVG/1.1/DTD/svg11.dtd">
<svg version="1.1" id="Layer_1" xmlns="http://www.w3.org/2000/svg" xmlns:xlink="http://www.w3.org/1999/xlink" x="0px" y="0px"
	 width="133.266px" height="187.086px" viewBox="0 0 133.266 187.086" enable-background="new 0 0 133.266 187.086"
	 xml:space="preserve">
<g>
	<polygon fill-rule="evenodd" clip-rule="evenodd" fill="#169A3B" points="133.595,143.859 133.595,26.784 0.329,26.784 
		0.329,143.859 133.595,143.859 	"/>
	<polygon fill-rule="evenodd" clip-rule="evenodd" fill="#169A3B" points="133.595,187.086 133.595,184.4 0.329,184.4 
		0.329,187.086 133.595,187.086 	"/>
	<polygon fill-rule="evenodd" clip-rule="evenodd" fill="#169A3B" points="133.651,2.687 133.651,0 0.329,0 0.329,2.687 
		133.651,2.687 	"/>
	<path fill-rule="evenodd" clip-rule="evenodd" fill="#169A3B" d="M9.072,12.763c-0.919-1.001-1.719-1.417-2.774-1.417
		c-2.076,0-3.71,1.909-3.71,4.329c0,2.552,1.583,4.348,3.812,4.348c1.003,0,1.787-0.397,2.671-1.38v2.889
		c-1.004,0.528-1.821,0.735-2.774,0.735c-3.37,0-5.991-2.867-5.991-6.573c0-3.668,2.688-6.592,6.042-6.592
		c0.953,0,1.753,0.227,2.723,0.773V12.763L9.072,12.763z"/>
	<polygon fill-rule="evenodd" clip-rule="evenodd" fill="#169A3B" points="23.712,11.522 23.712,14.306 27.627,14.306 
		27.627,16.447 23.712,16.447 23.712,19.846 27.78,19.846 27.78,21.987 21.508,21.987 21.508,9.382 27.78,9.382 27.78,11.522 
		23.712,11.522 	"/>
	<path fill-rule="evenodd" clip-rule="evenodd" fill="#169A3B" d="M42.519,15.18v-3.815h0.684c1.384,0,2.137,0.643,2.137,1.87
		c0,1.265-0.752,1.945-2.171,1.945H42.519L42.519,15.18z M45.032,16.677c1.669-0.379,2.588-1.648,2.588-3.574
		c0-2.362-1.463-3.723-4.024-3.723h-3.281v12.609h2.204v-5.065h0.291l3.076,5.065h2.723L45.032,16.677L45.032,16.677z"/>
	<polygon fill-rule="evenodd" clip-rule="evenodd" fill="#169A3B" points="61.833,21.989 61.833,11.522 59.296,11.522 59.296,9.382 
		66.589,9.382 66.589,11.522 64.036,11.522 64.036,21.989 61.833,21.989 	"/>
	<polygon fill-rule="evenodd" clip-rule="evenodd" fill="#169A3B" points="80.606,21.989 78.402,21.989 78.402,9.38 80.606,9.38 
		80.606,21.989 	"/>
	<polygon fill-rule="evenodd" clip-rule="evenodd" fill="#169A3B" points="95.804,11.522 95.804,14.306 99.361,14.306 
		99.361,16.447 95.804,16.447 95.804,21.989 93.6,21.989 93.6,9.382 99.599,9.382 99.599,11.522 95.804,11.522 	"/>
	<polygon fill-rule="evenodd" clip-rule="evenodd" fill="#169A3B" points="114.133,21.989 111.929,21.989 111.929,9.38 
		114.133,9.38 114.133,21.989 	"/>
	<path fill-rule="evenodd" clip-rule="evenodd" fill="#169A3B" d="M129.332,11.522v2.784h3.914v2.141h-3.914v3.399h4.067v2.141
		h-6.272V9.382h6.272v2.141H129.332L129.332,11.522z M130.094,8.222l-0.903-0.926l2.334-2.516l1.412,1.286L130.094,8.222
		L130.094,8.222z"/>
	<path fill-rule="evenodd" clip-rule="evenodd" fill="#169A3B" d="M6.935,156.383H3.7l1.651-4.536L6.935,156.383L6.935,156.383z
		 M7.632,158.368l0.971,2.661h2.366l-4.766-12.867H4.535l-4.919,12.867h2.349l1.021-2.661H7.632L7.632,158.368z"/>
	<path fill-rule="evenodd" clip-rule="evenodd" fill="#169A3B" d="M25.792,154.28v0.397c0,4.066-2.145,6.63-5.532,6.63
		c-3.438,0-5.957-2.733-5.957-6.516c0-3.857,2.536-6.649,6.025-6.649c2.11,0,3.795,1.019,4.868,2.962l-1.94,1.153
		c-0.681-1.247-1.668-1.871-2.979-1.871c-2.111,0-3.693,1.891-3.693,4.405c0,2.46,1.582,4.291,3.71,4.291
		c1.616,0,2.808-1.057,2.978-2.662h-2.671v-2.141H25.792L25.792,154.28z"/>
	<path fill-rule="evenodd" clip-rule="evenodd" fill="#169A3B" d="M33.029,154.221v-3.815h0.684c1.385,0,2.137,0.643,2.137,1.869
		c0,1.266-0.752,1.946-2.171,1.946H33.029L33.029,154.221z M35.542,155.717c1.67-0.379,2.588-1.648,2.588-3.574
		c0-2.361-1.463-3.723-4.024-3.723h-3.281v12.608h2.205v-5.064h0.291l3.075,5.064h2.723L35.542,155.717L35.542,155.717z"/>
	<polygon fill-rule="evenodd" clip-rule="evenodd" fill="#169A3B" points="45.792,161.029 43.588,161.029 43.588,148.42 
		45.792,148.42 45.792,161.029 	"/>
	<path fill-rule="evenodd" clip-rule="evenodd" fill="#169A3B" d="M59.574,151.804c-0.919-1.002-1.719-1.418-2.774-1.418
		c-2.076,0-3.71,1.91-3.71,4.329c0,2.552,1.583,4.348,3.812,4.348c1.004,0,1.787-0.396,2.672-1.38v2.889
		c-1.004,0.527-1.821,0.735-2.774,0.735c-3.37,0-5.99-2.867-5.99-6.573c0-3.667,2.688-6.592,6.042-6.592
		c0.953,0,1.753,0.227,2.723,0.773V151.804L59.574,151.804z"/>
	<path fill-rule="evenodd" clip-rule="evenodd" fill="#169A3B" d="M66.811,155.642c0,1.285,0.068,1.701,0.358,2.249
		c0.374,0.718,1.143,1.172,1.995,1.172c0.852,0,1.619-0.454,1.995-1.172c0.289-0.548,0.357-0.964,0.357-2.249v-7.222h2.204v7.713
		c0,1.475-0.254,2.514-0.831,3.363c-0.78,1.132-2.175,1.811-3.726,1.811c-1.552,0-2.946-0.679-3.726-1.811
		c-0.577-0.85-0.831-1.889-0.831-3.363v-7.713h2.204V155.642L66.811,155.642z"/>
	<polygon fill-rule="evenodd" clip-rule="evenodd" fill="#169A3B" points="81.514,158.886 85.003,158.886 85.003,161.027 
		79.31,161.027 79.31,148.42 81.514,148.42 81.514,158.886 	"/>
	<polygon fill-rule="evenodd" clip-rule="evenodd" fill="#169A3B" points="90.241,161.029 90.241,150.563 87.704,150.563 
		87.704,148.422 94.998,148.422 94.998,150.563 92.445,150.563 92.445,161.029 90.241,161.029 	"/>
	<path fill-rule="evenodd" clip-rule="evenodd" fill="#169A3B" d="M101.612,155.642c0,1.285,0.068,1.701,0.357,2.249
		c0.375,0.718,1.143,1.172,1.995,1.172s1.62-0.454,1.995-1.172c0.29-0.548,0.358-0.964,0.358-2.249v-7.222h2.204v7.713
		c0,1.475-0.254,2.514-0.831,3.363c-0.78,1.132-2.175,1.811-3.727,1.811c-1.551,0-2.946-0.679-3.727-1.811
		c-0.576-0.85-0.83-1.889-0.83-3.363v-7.713h2.204V155.642L101.612,155.642z"/>
	<path fill-rule="evenodd" clip-rule="evenodd" fill="#169A3B" d="M116.316,154.221v-3.815H117c1.385,0,2.138,0.643,2.138,1.869
		c0,1.266-0.753,1.946-2.172,1.946H116.316L116.316,154.221z M118.829,155.717c1.67-0.379,2.589-1.648,2.589-3.574
		c0-2.361-1.464-3.723-4.024-3.723h-3.281v12.608h2.204v-5.064h0.291l3.074,5.064h2.724L118.829,155.717L118.829,155.717z"/>
	<polygon fill-rule="evenodd" clip-rule="evenodd" fill="#169A3B" points="129.08,150.563 129.08,153.347 132.995,153.347 
		132.995,155.488 129.08,155.488 129.08,158.886 133.147,158.886 133.147,161.027 126.875,161.027 126.875,148.422 133.147,148.422 
		133.147,150.563 129.08,150.563 	"/>
	<path fill-rule="evenodd" clip-rule="evenodd" fill="#169A3B" d="M3.006,173.223v-3.276h0.668c1.114,0,1.696,0.567,1.696,1.629
		c0,1.098-0.583,1.647-1.73,1.647H3.006L3.006,173.223z M0.802,180.569h3.832c2.384,0,3.832-1.341,3.832-3.571
		c0-1.7-0.783-2.794-2.298-3.152c0.905-0.585,1.245-1.304,1.245-2.555c0-1.041-0.392-2.025-1.021-2.573
		c-0.579-0.511-1.466-0.756-2.786-0.756H0.802V180.569L0.802,180.569z M3.006,178.584v-3.494h0.839c1.658,0,2.339,0.528,2.339,1.794
		c0,1.134-0.732,1.7-2.212,1.7H3.006L3.006,178.584z"/>
	<polygon fill-rule="evenodd" clip-rule="evenodd" fill="#169A3B" points="16.536,180.57 14.332,180.57 14.332,167.961 
		16.536,167.961 16.536,180.57 	"/>
	<path fill-rule="evenodd" clip-rule="evenodd" fill="#169A3B" d="M28.476,169.927c2.092,0,3.776,1.947,3.776,4.329
		c0,2.4-1.701,4.348-3.776,4.348c-2.091,0-3.792-1.947-3.792-4.348C24.684,171.875,26.385,169.927,28.476,169.927L28.476,169.927z
		 M28.476,167.683c-3.401,0-6.073,2.905-6.073,6.61c0,3.706,2.637,6.555,6.073,6.555c3.385,0,6.056-2.887,6.056-6.592
		C34.532,170.57,31.877,167.683,28.476,167.683L28.476,167.683z"/>
	<polygon fill-rule="evenodd" clip-rule="evenodd" fill="#169A3B" points="42.608,178.427 46.098,178.427 46.098,180.568 
		40.405,180.568 40.405,167.961 42.608,167.961 42.608,178.427 	"/>
	<path fill-rule="evenodd" clip-rule="evenodd" fill="#169A3B" d="M56.675,169.927c2.091,0,3.775,1.947,3.775,4.329
		c0,2.4-1.701,4.348-3.775,4.348c-2.093,0-3.793-1.947-3.793-4.348C52.882,171.875,54.583,169.927,56.675,169.927L56.675,169.927z
		 M56.675,167.683c-3.402,0-6.074,2.905-6.074,6.61c0,3.706,2.638,6.555,6.074,6.555c3.384,0,6.056-2.887,6.056-6.592
		C62.731,170.57,60.076,167.683,56.675,167.683L56.675,167.683z"/>
	<path fill-rule="evenodd" clip-rule="evenodd" fill="#169A3B" d="M79.516,173.82v0.398c0,4.065-2.145,6.63-5.53,6.63
		c-3.438,0-5.957-2.734-5.957-6.517c0-3.856,2.535-6.648,6.024-6.648c2.11,0,3.795,1.018,4.867,2.962l-1.939,1.153
		c-0.681-1.248-1.668-1.871-2.979-1.871c-2.11,0-3.693,1.89-3.693,4.404c0,2.461,1.583,4.293,3.71,4.293
		c1.617,0,2.809-1.059,2.979-2.663h-2.673v-2.142H79.516L79.516,173.82z"/>
	<polygon fill-rule="evenodd" clip-rule="evenodd" fill="#169A3B" points="87.605,180.57 85.401,180.57 85.401,167.961 
		87.605,167.961 87.605,180.57 	"/>
	<path fill-rule="evenodd" clip-rule="evenodd" fill="#169A3B" d="M101.24,175.503l-2.294,0.208l2.192,2.383
		c-0.511,0.377-0.951,0.51-1.631,0.51c-2.158,0-3.755-1.853-3.755-4.367c0-2.438,1.665-4.31,3.839-4.31
		c2.091,0,3.789,1.928,3.789,4.329c0,1.115-0.255,1.909-0.884,2.665L101.24,175.503L101.24,175.503z M105.899,180.811l-1.838-2.019
		c1.123-1.436,1.6-2.76,1.6-4.518c0-3.705-2.671-6.592-6.069-6.592c-3.448,0-6.119,2.867-6.119,6.573
		c0,3.724,2.654,6.592,6.086,6.592c1.257,0,2.175-0.265,3.177-0.943l0.935,1.151L105.899,180.811L105.899,180.811z"/>
	<path fill-rule="evenodd" clip-rule="evenodd" fill="#169A3B" d="M113.626,175.182c0,1.286,0.068,1.701,0.358,2.25
		c0.375,0.718,1.143,1.172,1.995,1.172c0.852,0,1.62-0.454,1.994-1.172c0.29-0.549,0.358-0.964,0.358-2.25v-7.221h2.204v7.713
		c0,1.475-0.255,2.514-0.83,3.363c-0.78,1.132-2.175,1.811-3.727,1.811s-2.946-0.679-3.727-1.811
		c-0.576-0.85-0.831-1.889-0.831-3.363v-7.713h2.204V175.182L113.626,175.182z"/>
	<polygon fill-rule="evenodd" clip-rule="evenodd" fill="#169A3B" points="129.182,170.103 129.182,172.887 133.096,172.887 
		133.096,175.028 129.182,175.028 129.182,178.427 133.25,178.427 133.25,180.568 126.978,180.568 126.978,167.963 133.25,167.963 
		133.25,170.103 129.182,170.103 	"/>
	<path fill-rule="evenodd" clip-rule="evenodd" fill="#FFFFFF" d="M79.756,63.132c16.521,0,25.893,7.148,25.893,19.062
		c0,11.914-7.625,15.568-7.625,15.568s14.139,3.336,14.139,20.015c0,19.381-22.398,19.593-22.398,19.593H70.383V63.132H79.756
		L79.756,63.132z M79.756,71.868v24.145c0,0,4.288,0,7.148-0.317c2.859-0.317,10.325-1.906,10.166-12.072
		c-0.158-10.167-7.148-11.438-12.231-11.914L79.756,71.868L79.756,71.868z M79.756,103.797v25.099c0,0,7.307,0,9.531,0
		c2.224,0,13.661-1.43,13.819-12.391c0.159-10.961-12.391-13.025-15.249-13.025C84.999,103.48,79.756,103.797,79.756,103.797
		L79.756,103.797z"/>
	<path fill-rule="evenodd" clip-rule="evenodd" fill="#FFFFFF" d="M63.236,137.369h-9.373v-17.687H21.934
		c0,0-2.542,6.672-2.542,17.315h-9.055c0-19.062,10.528-52.512,39.236-71.96c10.802-5.56,13.662,2.383,13.662,4.766
		S63.236,137.369,63.236,137.369L63.236,137.369z M53.863,72.821c-25.099,20.492-28.435,37.648-28.435,37.648h28.435V72.821
		L53.863,72.821z"/>
	<path fill-rule="evenodd" clip-rule="evenodd" fill="#FFFFFF" d="M83.569,31.282c0,0,16.759,7.148,13.661,27.72
		c0,0,9.531-12.708,24.939-9.531c0,0-6.783,19.192-26.925,12.867C76.023,56.301,80.63,34.379,83.569,31.282L83.569,31.282z"/>
</g>
</svg>
